<mxfile host="app.diagrams.net" agent="Mozilla/5.0 (Windows NT 10.0; Win64; x64) AppleWebKit/537.36 (KHTML, like Gecko) Chrome/123.0.0.0 Safari/537.36 OPR/109.0.0.0" version="24.7.7">
  <diagram name="PÃ¡gina-1" id="mIqUGU3oBC_AaJJc5hnu">
    <mxGraphModel dx="883" dy="478" grid="1" gridSize="10" guides="1" tooltips="1" connect="1" arrows="1" fold="1" page="1" pageScale="1" pageWidth="827" pageHeight="1169" math="0" shadow="0">
      <root>
        <mxCell id="0" />
        <mxCell id="1" parent="0" />
        <mxCell id="lKmpcnNSKkCsuCaqbkay-1" style="edgeStyle=orthogonalEdgeStyle;rounded=0;orthogonalLoop=1;jettySize=auto;html=1;exitX=0.5;exitY=1;exitDx=0;exitDy=0;entryX=0.5;entryY=0;entryDx=0;entryDy=0;" parent="1" source="lKmpcnNSKkCsuCaqbkay-2" target="lKmpcnNSKkCsuCaqbkay-4" edge="1">
          <mxGeometry relative="1" as="geometry" />
        </mxCell>
        <mxCell id="lKmpcnNSKkCsuCaqbkay-2" value="&lt;span style=&quot;color: rgb(26, 26, 26); background-color: transparent;&quot;&gt;INICIO&lt;/span&gt;" style="ellipse;whiteSpace=wrap;html=1;" parent="1" vertex="1">
          <mxGeometry x="354" y="120" width="120" height="80" as="geometry" />
        </mxCell>
        <mxCell id="UTnGuk9wPcBrAkuTqRtw-2" style="edgeStyle=orthogonalEdgeStyle;rounded=0;orthogonalLoop=1;jettySize=auto;html=1;exitX=0.5;exitY=1;exitDx=0;exitDy=0;entryX=0.5;entryY=0;entryDx=0;entryDy=0;" edge="1" parent="1" source="lKmpcnNSKkCsuCaqbkay-4" target="UTnGuk9wPcBrAkuTqRtw-1">
          <mxGeometry relative="1" as="geometry" />
        </mxCell>
        <mxCell id="lKmpcnNSKkCsuCaqbkay-4" value="&lt;div&gt;&lt;font color=&quot;#1a1a1a&quot;&gt;Ingresar los metros cubicos de la pisina&lt;/font&gt;&lt;/div&gt;" style="shape=parallelogram;perimeter=parallelogramPerimeter;whiteSpace=wrap;html=1;fixedSize=1;" parent="1" vertex="1">
          <mxGeometry x="307" y="220" width="214" height="70" as="geometry" />
        </mxCell>
        <mxCell id="lKmpcnNSKkCsuCaqbkay-7" value="" style="edgeStyle=orthogonalEdgeStyle;rounded=0;orthogonalLoop=1;jettySize=auto;html=1;" parent="1" source="lKmpcnNSKkCsuCaqbkay-8" target="lKmpcnNSKkCsuCaqbkay-9" edge="1">
          <mxGeometry relative="1" as="geometry" />
        </mxCell>
        <mxCell id="lKmpcnNSKkCsuCaqbkay-8" value="&lt;font color=&quot;#1a1a1a&quot;&gt;Mostrar Costo Total&amp;nbsp;&lt;/font&gt;" style="shape=parallelogram;perimeter=parallelogramPerimeter;whiteSpace=wrap;html=1;fixedSize=1;" parent="1" vertex="1">
          <mxGeometry x="312" y="850" width="184" height="60" as="geometry" />
        </mxCell>
        <mxCell id="lKmpcnNSKkCsuCaqbkay-9" value="&lt;span style=&quot;color: rgb(26, 26, 26); background-color: transparent;&quot;&gt;FIN&lt;/span&gt;" style="ellipse;whiteSpace=wrap;html=1;" parent="1" vertex="1">
          <mxGeometry x="344" y="940" width="120" height="80" as="geometry" />
        </mxCell>
        <mxCell id="UTnGuk9wPcBrAkuTqRtw-4" style="edgeStyle=orthogonalEdgeStyle;rounded=0;orthogonalLoop=1;jettySize=auto;html=1;exitX=1;exitY=0.5;exitDx=0;exitDy=0;entryX=1;entryY=0.5;entryDx=0;entryDy=0;" edge="1" parent="1" source="UTnGuk9wPcBrAkuTqRtw-1" target="lKmpcnNSKkCsuCaqbkay-4">
          <mxGeometry relative="1" as="geometry">
            <mxPoint x="560" y="250" as="targetPoint" />
            <Array as="points">
              <mxPoint x="550" y="380" />
              <mxPoint x="550" y="250" />
            </Array>
          </mxGeometry>
        </mxCell>
        <mxCell id="UTnGuk9wPcBrAkuTqRtw-5" value="No" style="edgeLabel;html=1;align=center;verticalAlign=middle;resizable=0;points=[];" vertex="1" connectable="0" parent="UTnGuk9wPcBrAkuTqRtw-4">
          <mxGeometry x="-0.0207" y="1" relative="1" as="geometry">
            <mxPoint as="offset" />
          </mxGeometry>
        </mxCell>
        <mxCell id="UTnGuk9wPcBrAkuTqRtw-6" style="edgeStyle=orthogonalEdgeStyle;rounded=0;orthogonalLoop=1;jettySize=auto;html=1;exitX=0.5;exitY=1;exitDx=0;exitDy=0;" edge="1" parent="1" source="UTnGuk9wPcBrAkuTqRtw-1">
          <mxGeometry relative="1" as="geometry">
            <mxPoint x="422" y="480" as="targetPoint" />
          </mxGeometry>
        </mxCell>
        <mxCell id="UTnGuk9wPcBrAkuTqRtw-8" value="Si" style="edgeLabel;html=1;align=center;verticalAlign=middle;resizable=0;points=[];" vertex="1" connectable="0" parent="UTnGuk9wPcBrAkuTqRtw-6">
          <mxGeometry x="-0.4" y="1" relative="1" as="geometry">
            <mxPoint as="offset" />
          </mxGeometry>
        </mxCell>
        <mxCell id="UTnGuk9wPcBrAkuTqRtw-1" value="ingreso los metros cubicos?" style="rhombus;whiteSpace=wrap;html=1;" vertex="1" parent="1">
          <mxGeometry x="335.5" y="310" width="173" height="140" as="geometry" />
        </mxCell>
        <mxCell id="UTnGuk9wPcBrAkuTqRtw-10" style="edgeStyle=orthogonalEdgeStyle;rounded=0;orthogonalLoop=1;jettySize=auto;html=1;exitX=0.5;exitY=1;exitDx=0;exitDy=0;entryX=0.5;entryY=0;entryDx=0;entryDy=0;" edge="1" parent="1" source="UTnGuk9wPcBrAkuTqRtw-7" target="UTnGuk9wPcBrAkuTqRtw-9">
          <mxGeometry relative="1" as="geometry" />
        </mxCell>
        <mxCell id="UTnGuk9wPcBrAkuTqRtw-7" value="Ingresar valor por metro cubico" style="shape=parallelogram;perimeter=parallelogramPerimeter;whiteSpace=wrap;html=1;fixedSize=1;" vertex="1" parent="1">
          <mxGeometry x="318.5" y="480" width="201.5" height="50" as="geometry" />
        </mxCell>
        <mxCell id="UTnGuk9wPcBrAkuTqRtw-11" style="edgeStyle=orthogonalEdgeStyle;rounded=0;orthogonalLoop=1;jettySize=auto;html=1;exitX=1;exitY=0.5;exitDx=0;exitDy=0;entryX=1;entryY=0.25;entryDx=0;entryDy=0;" edge="1" parent="1" source="UTnGuk9wPcBrAkuTqRtw-9" target="UTnGuk9wPcBrAkuTqRtw-7">
          <mxGeometry relative="1" as="geometry">
            <Array as="points">
              <mxPoint x="570" y="625" />
              <mxPoint x="570" y="493" />
            </Array>
          </mxGeometry>
        </mxCell>
        <mxCell id="UTnGuk9wPcBrAkuTqRtw-12" value="No" style="edgeLabel;html=1;align=center;verticalAlign=middle;resizable=0;points=[];" vertex="1" connectable="0" parent="UTnGuk9wPcBrAkuTqRtw-11">
          <mxGeometry x="0.18" y="1" relative="1" as="geometry">
            <mxPoint as="offset" />
          </mxGeometry>
        </mxCell>
        <mxCell id="UTnGuk9wPcBrAkuTqRtw-14" style="edgeStyle=orthogonalEdgeStyle;rounded=0;orthogonalLoop=1;jettySize=auto;html=1;exitX=0.5;exitY=1;exitDx=0;exitDy=0;entryX=0.5;entryY=0;entryDx=0;entryDy=0;" edge="1" parent="1" source="UTnGuk9wPcBrAkuTqRtw-9" target="UTnGuk9wPcBrAkuTqRtw-13">
          <mxGeometry relative="1" as="geometry" />
        </mxCell>
        <mxCell id="UTnGuk9wPcBrAkuTqRtw-15" value="Si" style="edgeLabel;html=1;align=center;verticalAlign=middle;resizable=0;points=[];" vertex="1" connectable="0" parent="UTnGuk9wPcBrAkuTqRtw-14">
          <mxGeometry x="0.0164" y="1" relative="1" as="geometry">
            <mxPoint as="offset" />
          </mxGeometry>
        </mxCell>
        <mxCell id="UTnGuk9wPcBrAkuTqRtw-9" value="Ingreso valor por metro cubico?" style="rhombus;whiteSpace=wrap;html=1;" vertex="1" parent="1">
          <mxGeometry x="358.88" y="560" width="120.75" height="130" as="geometry" />
        </mxCell>
        <mxCell id="UTnGuk9wPcBrAkuTqRtw-13" value="Realizar operacion de valor por metro cubico * metro cubico de la pisina" style="rounded=0;whiteSpace=wrap;html=1;" vertex="1" parent="1">
          <mxGeometry x="348" y="730" width="148" height="90" as="geometry" />
        </mxCell>
        <mxCell id="UTnGuk9wPcBrAkuTqRtw-16" style="edgeStyle=orthogonalEdgeStyle;rounded=0;orthogonalLoop=1;jettySize=auto;html=1;exitX=0.5;exitY=1;exitDx=0;exitDy=0;entryX=0.587;entryY=0;entryDx=0;entryDy=0;entryPerimeter=0;" edge="1" parent="1" source="UTnGuk9wPcBrAkuTqRtw-13" target="lKmpcnNSKkCsuCaqbkay-8">
          <mxGeometry relative="1" as="geometry" />
        </mxCell>
      </root>
    </mxGraphModel>
  </diagram>
</mxfile>
